<?xml version="1.0" encoding="UTF-8"?>
<svg id="Capa_2" data-name="Capa 2" xmlns="http://www.w3.org/2000/svg" viewBox="0 0 500 500">
  <defs>
    <style>
      .cls-1 {
        fill: #fff;
      }

      .cls-2 {
        fill: #72aadd;
      }

      .cls-3, .cls-4 {
        fill: #2d2a70;
      }

      .cls-4 {
        stroke: #2d2a70;
        stroke-miterlimit: 10;
        stroke-width: 2px;
      }
    </style>
  </defs>
  <rect class="cls-1" x=".71" y=".51" width="499.29" height="499.29"/>
  <g>
    <g>
      <path class="cls-4" d="M75.53,238.76h-15v-3.19h33.58v3.19h-15.06v41.49h-3.51v-41.49Z"/>
      <path class="cls-4" d="M104.26,259.38v20.87h-3.51v-44.68h16.02c8.81,0,13.47,4.72,13.47,11.74,0,5.68-3.38,9.38-8.36,10.47,4.6,1.08,7.66,4.09,7.66,11.68v1.72c0,3.13-.26,7.34,.58,9.06h-3.51c-.83-1.92-.64-5.49-.64-9.32v-1.15c0-7.34-2.17-10.4-10.72-10.4h-10.98Zm0-3.19h10.79c7.85,0,11.49-2.94,11.49-8.81,0-5.49-3.58-8.62-10.53-8.62h-11.74v17.43Z"/>
      <path class="cls-4" d="M146.26,264.8l-5.68,15.45h-3.51l16.41-44.68h4.09l17.11,44.68h-3.77l-5.81-15.45h-18.83Zm17.68-3.19c-4.98-13.28-7.53-19.66-8.43-22.66h-.06c-1.08,3.38-3.96,11.3-7.98,22.66h16.47Z"/>
      <path class="cls-4" d="M182.58,280.25v-44.68h5.11c6.96,10.72,23.3,35.68,26.11,40.53h.06c-.38-6.45-.32-13.02-.32-20.3v-20.23h3.51v44.68h-4.72c-6.64-10.34-23.23-36.32-26.43-41.24h-.06c.32,5.87,.26,12.38,.26,20.49v20.75h-3.51Z"/>
      <path class="cls-4" d="M229.89,268.25c1.34,5.93,5.3,9.45,12.64,9.45,8.17,0,11.3-4.09,11.3-8.94s-2.23-8.17-12.06-10.6c-9.45-2.36-13.53-5.43-13.53-11.87,0-5.87,4.28-11.36,13.85-11.36s13.98,6,14.55,11.43h-3.57c-1.02-4.79-4.15-8.24-11.17-8.24-6.45,0-9.96,3-9.96,7.98s2.94,6.83,11.17,8.87c12.57,3.13,14.43,8.17,14.43,13.53,0,6.57-4.79,12.26-15.13,12.26-11.17,0-15.26-6.51-16.09-12.51h3.57Z"/>
    </g>
    <circle class="cls-2" cx="339.11" cy="257.88" r="74.59"/>
    <g>
      <path class="cls-1" d="M288.15,278.52c0,.63-.22,1.16-.65,1.59s-.97,.65-1.59,.65h-3.83c-.63,0-1.16-.22-1.59-.65s-.65-.96-.65-1.59v-41.35c0-.63,.22-1.16,.65-1.59s.96-.65,1.59-.65h4.84c.39,0,.73,.1,1.05,.29,.31,.19,.54,.46,.69,.8l15.25,31.95,15.33-31.95c.14-.34,.37-.6,.69-.8,.31-.19,.66-.29,1.05-.29h4.84c.63,0,1.16,.22,1.59,.65s.65,.97,.65,1.59v41.35c0,.63-.22,1.16-.65,1.59s-.96,.65-1.59,.65h-3.83c-.63,0-1.16-.22-1.59-.65s-.65-.96-.65-1.59v-25.09l-12.87,26.24c-.14,.34-.37,.6-.69,.8-.31,.19-.66,.29-1.05,.29h-2.39c-.39,0-.74-.1-1.05-.29-.31-.19-.54-.46-.69-.8l-12.87-26.24v25.09Z"/>
      <path class="cls-1" d="M355.62,253.94c.63,0,1.16,.22,1.59,.65s.65,.96,.65,1.59v2.89c0,.63-.22,1.16-.65,1.59s-.97,.65-1.59,.65h-14.82v12.15h18.15c.63,0,1.16,.22,1.59,.65,.43,.43,.65,.97,.65,1.59v2.82c0,.63-.22,1.16-.65,1.59-.43,.43-.96,.65-1.59,.65h-24.22c-.63,0-1.16-.22-1.59-.65s-.65-.96-.65-1.59v-41.35c0-.63,.22-1.16,.65-1.59s.96-.65,1.59-.65h24.22c.63,0,1.16,.22,1.59,.65,.43,.43,.65,.97,.65,1.59v2.89c0,.63-.22,1.16-.65,1.59-.43,.43-.96,.65-1.59,.65h-18.15v11.64h14.82Z"/>
      <path class="cls-1" d="M377.51,234.93c7.18,0,13.01,2.1,17.5,6.29,4.43,4.29,6.65,9.83,6.65,16.63s-2.22,12.36-6.65,16.56c-4.43,4.24-10.27,6.36-17.5,6.36h-10.05c-.63,0-1.16-.22-1.59-.65s-.65-.96-.65-1.59v-41.35c0-.63,.22-1.16,.65-1.59s.96-.65,1.59-.65h10.05Zm0,38.53c4.67,0,8.48-1.4,11.42-4.19,2.94-2.75,4.41-6.55,4.41-11.42s-1.45-8.68-4.34-11.42c-2.99-2.75-6.82-4.12-11.5-4.12h-3.98v31.16h3.98Z"/>
    </g>
    <rect class="cls-3" x="57.09" y="291.31" width="312.74" height="9.59" rx="4.79" ry="4.79"/>
    <rect class="cls-3" x="207.81" y="306.08" width="111.53" height="9.04" rx="4.52" ry="4.52"/>
  </g>
</svg>