<?xml version="1.0" encoding="UTF-8"?>
<svg id="Capa_2" data-name="Capa 2" xmlns="http://www.w3.org/2000/svg" viewBox="0 0 500 500">
  <defs>
    <style>
      .cls-1 {
        fill: #fff;
      }

      .cls-2 {
        fill: #dda400;
      }

      .cls-3 {
        fill: #72aadd;
      }

      .cls-4, .cls-5 {
        fill: #2d2a70;
      }

      .cls-5 {
        stroke: #2d2a70;
        stroke-miterlimit: 10;
        stroke-width: 2px;
      }
    </style>
  </defs>
  <rect class="cls-3" x="1.37" y=".51" width="499.49" height="499.49"/>
  <g>
    <g>
      <path class="cls-5" d="M76.22,236.28h-15.01v-3.19h33.59v3.19h-15.07v41.51h-3.51v-41.51Z"/>
      <path class="cls-5" d="M104.96,256.91v20.88h-3.51v-44.7h16.03c8.81,0,13.47,4.73,13.47,11.75,0,5.68-3.38,9.39-8.37,10.47,4.6,1.09,7.66,4.09,7.66,11.69v1.73c0,3.13-.26,7.34,.58,9.07h-3.51c-.83-1.92-.64-5.49-.64-9.32v-1.15c0-7.34-2.17-10.41-10.73-10.41h-10.98Zm0-3.19h10.79c7.86,0,11.5-2.94,11.5-8.81,0-5.49-3.58-8.62-10.54-8.62h-11.75v17.43Z"/>
      <path class="cls-5" d="M146.98,262.34l-5.68,15.45h-3.51l16.41-44.7h4.09l17.12,44.7h-3.77l-5.81-15.45h-18.84Zm17.69-3.19c-4.98-13.28-7.54-19.67-8.43-22.67h-.06c-1.09,3.38-3.96,11.3-7.98,22.67h16.47Z"/>
      <path class="cls-5" d="M183.32,277.79v-44.7h5.11c6.96,10.73,23.31,35.7,26.12,40.55h.06c-.38-6.45-.32-13.03-.32-20.31v-20.24h3.51v44.7h-4.73c-6.64-10.35-23.24-36.34-26.44-41.25h-.06c.32,5.88,.26,12.39,.26,20.5v20.76h-3.51Z"/>
      <path class="cls-5" d="M230.64,265.79c1.34,5.94,5.3,9.45,12.64,9.45,8.17,0,11.3-4.09,11.3-8.94s-2.23-8.17-12.07-10.6c-9.45-2.36-13.54-5.43-13.54-11.88,0-5.87,4.28-11.37,13.86-11.37s13.98,6,14.56,11.43h-3.58c-1.02-4.79-4.15-8.24-11.18-8.24-6.45,0-9.96,3-9.96,7.98s2.94,6.83,11.18,8.88c12.58,3.13,14.43,8.17,14.43,13.54,0,6.58-4.79,12.26-15.13,12.26-11.18,0-15.26-6.52-16.09-12.52h3.58Z"/>
    </g>
    <circle class="cls-2" cx="339.9" cy="255.41" r="74.62"/>
    <g>
      <path class="cls-1" d="M288.93,276.06c0,.63-.22,1.16-.65,1.59s-.97,.65-1.59,.65h-3.83c-.63,0-1.16-.22-1.59-.65s-.65-.96-.65-1.59v-41.37c0-.63,.22-1.16,.65-1.59s.96-.65,1.59-.65h4.85c.39,0,.73,.1,1.05,.29,.31,.19,.54,.46,.69,.8l15.26,31.97,15.33-31.97c.14-.34,.37-.6,.69-.8,.31-.19,.66-.29,1.05-.29h4.85c.63,0,1.16,.22,1.59,.65s.65,.97,.65,1.59v41.37c0,.63-.22,1.16-.65,1.59s-.96,.65-1.59,.65h-3.83c-.63,0-1.16-.22-1.59-.65s-.65-.96-.65-1.59v-25.1l-12.87,26.25c-.14,.34-.37,.6-.69,.8-.31,.19-.66,.29-1.05,.29h-2.39c-.39,0-.74-.1-1.05-.29-.31-.19-.54-.46-.69-.8l-12.87-26.25v25.1Z"/>
      <path class="cls-1" d="M356.42,251.47c.63,0,1.16,.22,1.59,.65s.65,.96,.65,1.59v2.89c0,.63-.22,1.16-.65,1.59s-.97,.65-1.59,.65h-14.83v12.15h18.15c.63,0,1.16,.22,1.59,.65,.43,.43,.65,.97,.65,1.59v2.82c0,.63-.22,1.16-.65,1.59-.43,.43-.96,.65-1.59,.65h-24.23c-.63,0-1.16-.22-1.59-.65s-.65-.96-.65-1.59v-41.37c0-.63,.22-1.16,.65-1.59s.96-.65,1.59-.65h24.23c.63,0,1.16,.22,1.59,.65,.43,.43,.65,.97,.65,1.59v2.89c0,.63-.22,1.16-.65,1.59-.43,.43-.96,.65-1.59,.65h-18.15v11.64h14.83Z"/>
      <path class="cls-1" d="M378.32,232.45c7.18,0,13.02,2.1,17.5,6.29,4.44,4.29,6.65,9.84,6.65,16.63s-2.22,12.37-6.65,16.56c-4.44,4.24-10.27,6.36-17.5,6.36h-10.05c-.63,0-1.16-.22-1.59-.65s-.65-.96-.65-1.59v-41.37c0-.63,.22-1.16,.65-1.59s.96-.65,1.59-.65h10.05Zm0,38.55c4.68,0,8.49-1.4,11.43-4.19,2.94-2.75,4.41-6.56,4.41-11.43s-1.45-8.68-4.34-11.43c-2.99-2.75-6.82-4.12-11.5-4.12h-3.98v31.17h3.98Z"/>
    </g>
    <rect class="cls-4" x="57.77" y="288.85" width="312.86" height="9.59" rx="4.8" ry="4.8"/>
    <rect class="cls-4" x="208.55" y="303.63" width="111.57" height="9.04" rx="4.52" ry="4.52"/>
  </g>
</svg>