<?xml version="1.0" encoding="UTF-8"?>
<svg id="Capa_2" data-name="Capa 2" xmlns="http://www.w3.org/2000/svg" viewBox="0 0 500 500">
  <defs>
    <style>
      .cls-1, .cls-2 {
        fill: #fff;
      }

      .cls-2 {
        stroke: #fff;
        stroke-miterlimit: 10;
        stroke-width: 2px;
      }

      .cls-3 {
        fill: #dda400;
      }

      .cls-4 {
        fill: #72aadd;
      }

      .cls-5 {
        fill: #2d2a70;
      }
    </style>
  </defs>
  <rect class="cls-3" y=".51" width="500.02" height="500.02"/>
  <g>
    <g>
      <path class="cls-2" d="M97.01,236.54h-15.02v-3.2h33.63v3.2h-15.09v41.55h-3.52v-41.55Z"/>
      <path class="cls-2" d="M125.78,257.18v20.9h-3.52v-44.75h16.05c8.82,0,13.49,4.73,13.49,11.76,0,5.69-3.39,9.4-8.37,10.48,4.6,1.09,7.67,4.09,7.67,11.7v1.73c0,3.13-.26,7.35,.58,9.08h-3.52c-.83-1.92-.64-5.5-.64-9.33v-1.15c0-7.35-2.17-10.42-10.74-10.42h-10.99Zm0-3.2h10.8c7.86,0,11.51-2.94,11.51-8.82,0-5.5-3.58-8.63-10.55-8.63h-11.76v17.45Z"/>
      <path class="cls-2" d="M167.85,262.62l-5.69,15.47h-3.52l16.43-44.75h4.09l17.13,44.75h-3.77l-5.82-15.47h-18.86Zm17.71-3.2c-4.99-13.3-7.54-19.69-8.44-22.69h-.06c-1.09,3.39-3.96,11.31-7.99,22.69h16.49Z"/>
      <path class="cls-2" d="M204.22,278.09v-44.75h5.12c6.97,10.74,23.33,35.73,26.15,40.59h.06c-.38-6.46-.32-13.04-.32-20.33v-20.26h3.51v44.75h-4.73c-6.65-10.36-23.27-36.38-26.47-41.3h-.06c.32,5.88,.26,12.4,.26,20.52v20.78h-3.52Z"/>
      <path class="cls-2" d="M251.6,266.07c1.34,5.94,5.3,9.46,12.66,9.46,8.18,0,11.31-4.09,11.31-8.95s-2.24-8.18-12.08-10.61c-9.46-2.37-13.55-5.43-13.55-11.89,0-5.88,4.28-11.38,13.87-11.38s14,6.01,14.58,11.44h-3.58c-1.02-4.79-4.16-8.25-11.19-8.25-6.46,0-9.97,3.01-9.97,7.99s2.94,6.84,11.19,8.89c12.59,3.13,14.45,8.18,14.45,13.55,0,6.58-4.79,12.27-15.15,12.27-11.19,0-15.28-6.52-16.11-12.53h3.58Z"/>
    </g>
    <circle class="cls-5" cx="360.98" cy="255.69" r="74.7"/>
    <g>
      <path class="cls-4" d="M309.95,276.36c0,.63-.22,1.16-.65,1.59s-.97,.65-1.59,.65h-3.84c-.63,0-1.16-.22-1.59-.65s-.65-.97-.65-1.59v-41.41c0-.63,.22-1.16,.65-1.59s.96-.65,1.59-.65h4.85c.39,0,.74,.1,1.05,.29,.31,.19,.54,.46,.69,.8l15.28,32,15.35-32c.15-.34,.37-.6,.69-.8,.31-.19,.66-.29,1.05-.29h4.85c.63,0,1.16,.22,1.59,.65s.65,.97,.65,1.59v41.41c0,.63-.22,1.16-.65,1.59s-.97,.65-1.59,.65h-3.84c-.63,0-1.16-.22-1.59-.65s-.65-.97-.65-1.59v-25.12l-12.89,26.28c-.15,.34-.37,.6-.69,.8-.31,.19-.66,.29-1.05,.29h-2.39c-.39,0-.74-.1-1.05-.29-.31-.19-.54-.46-.69-.8l-12.89-26.28v25.12Z"/>
      <path class="cls-4" d="M377.52,251.74c.63,0,1.16,.22,1.59,.65s.65,.97,.65,1.59v2.9c0,.63-.22,1.16-.65,1.59s-.97,.65-1.59,.65h-14.84v12.16h18.17c.63,0,1.16,.22,1.59,.65,.43,.43,.65,.97,.65,1.59v2.82c0,.63-.22,1.16-.65,1.59-.43,.43-.97,.65-1.59,.65h-24.25c-.63,0-1.16-.22-1.59-.65s-.65-.97-.65-1.59v-41.41c0-.63,.22-1.16,.65-1.59s.96-.65,1.59-.65h24.25c.63,0,1.16,.22,1.59,.65,.43,.43,.65,.97,.65,1.59v2.9c0,.63-.22,1.16-.65,1.59-.43,.43-.97,.65-1.59,.65h-18.17v11.66h14.84Z"/>
      <path class="cls-4" d="M399.44,232.7c7.19,0,13.03,2.1,17.52,6.3,4.44,4.3,6.66,9.85,6.66,16.65s-2.22,12.38-6.66,16.58c-4.44,4.25-10.28,6.37-17.52,6.37h-10.06c-.63,0-1.16-.22-1.59-.65s-.65-.97-.65-1.59v-41.41c0-.63,.22-1.16,.65-1.59s.96-.65,1.59-.65h10.06Zm0,38.59c4.68,0,8.5-1.4,11.44-4.2,2.94-2.75,4.42-6.56,4.42-11.44s-1.45-8.69-4.34-11.44c-2.99-2.75-6.83-4.13-11.51-4.13h-3.98v31.21h3.98Z"/>
    </g>
    <rect class="cls-1" x="78.54" y="289.16" width="313.2" height="9.6" rx="4.8" ry="4.8"/>
    <rect class="cls-1" x="229.49" y="303.95" width="111.69" height="9.05" rx="4.53" ry="4.53"/>
  </g>
</svg>